<svg xmlns="http://www.w3.org/2000/svg" width="340" height="200" viewBox="0 0 340 200"><style>* {
          font-family: 'Segoe UI', Ubuntu, "Helvetica Neue", Sans-Serif
        }</style><rect x="1" y="1" rx="5" ry="5" height="99%" width="99.41176470588235%" stroke="#000000" stroke-width="1" fill="#151515" stroke-opacity="0"></rect><text x="30" y="40" style="font-size: 22px; fill: #fff;">Top Languages by Commit</text><g transform="translate(0,40)"><g transform="translate(40,0)"><rect y="18" width="14" height="14" fill="#b07219" stroke="#151515" style="stroke-width: 1px;"></rect><rect y="43.2" width="14" height="14" fill="#e34c26" stroke="#151515" style="stroke-width: 1px;"></rect><rect y="68.4" width="14" height="14" fill="#DA5B0B" stroke="#151515" style="stroke-width: 1px;"></rect><rect y="93.60000000000002" width="14" height="14" fill="#3178c6" stroke="#151515" style="stroke-width: 1px;"></rect><rect y="118.80000000000001" width="14" height="14" fill="#4F5D95" stroke="#151515" style="stroke-width: 1px;"></rect><text x="16.8" y="30" style="fill: #9f9f9f; font-size: 14px;">Java</text><text x="16.8" y="55.2" style="fill: #9f9f9f; font-size: 14px;">HTML</text><text x="16.8" y="80.4" style="fill: #9f9f9f; font-size: 14px;">Jupyter Notebook</text><text x="16.8" y="105.60000000000002" style="fill: #9f9f9f; font-size: 14px;">TypeScript</text><text x="16.8" y="130.8" style="fill: #9f9f9f; font-size: 14px;">PHP</text></g><g transform="translate( 230, 80 )"><g class="arc"><path d="M3.67394039744206e-15,-60A60,60,0,0,1,56.442016000261994,20.35433196708182L32.924509333486164,11.873360314131062A35,35,0,0,0,2.1431318985078682e-15,-35Z" style="fill: #b07219; stroke-width: 2px;" stroke="#151515"></path></g><g class="arc"><path d="M56.442016000261994,20.35433196708182A60,60,0,0,1,-31.37261120332965,51.14449399773856L-18.300689868608963,29.83428816534749A35,35,0,0,0,32.924509333486164,11.873360314131062Z" style="fill: #e34c26; stroke-width: 2px;" stroke="#151515"></path></g><g class="arc"><path d="M-31.37261120332965,51.14449399773856A60,60,0,0,1,-52.48578507191767,-29.073052219959024L-30.61670795861864,-16.959280461642766A35,35,0,0,0,-18.300689868608963,29.83428816534749Z" style="fill: #DA5B0B; stroke-width: 2px;" stroke="#151515"></path></g><g class="arc"><path d="M-52.48578507191767,-29.073052219959024A60,60,0,0,1,-28.606125464077472,-52.741725284005064L-16.686906520711858,-30.76600641566962A35,35,0,0,0,-30.61670795861864,-16.959280461642766Z" style="fill: #3178c6; stroke-width: 2px;" stroke="#151515"></path></g><g class="arc"><path d="M-28.606125464077472,-52.741725284005064A60,60,0,0,1,4.226888398968133e-14,-60L2.4656848993980778e-14,-35A35,35,0,0,0,-16.686906520711858,-30.76600641566962Z" style="fill: #4F5D95; stroke-width: 2px;" stroke="#151515"></path></g></g></g></svg>